<svg xmlns="http://www.w3.org/2000/svg" version="1.1" xmlns:xlink="http://www.w3.org/1999/xlink" xmlns:svgjs="http://svgjs.dev/svgjs" width="1500" height="390" viewBox="0 0 1500 390"><g transform="matrix(1,0,0,1,-0.9089813906801965,-0.5695786675387353)"><svg viewBox="0 0 396 103" data-background-color="#000000" preserveAspectRatio="xMidYMid meet" height="390" width="1500" xmlns="http://www.w3.org/2000/svg" xmlns:xlink="http://www.w3.org/1999/xlink"><g id="tight-bounds" transform="matrix(1,0,0,1,0.2399710871395655,0.15054716016589964)"><svg viewBox="0 0 395.52 102.69902565327902" height="102.69902565327902" width="395.52"><g><svg viewBox="0 0 547.189029206588 142.08075482322064" height="102.69902565327902" width="395.52"><g transform="matrix(1,0,0,1,151.66902920658796,0)"><svg viewBox="0 0 395.52 142.08075482322064" height="142.08075482322064" width="395.52"><g id="textblocktransform"><svg viewBox="0 0 395.52 142.08075482322064" height="142.08075482322064" width="395.52" id="textblock"><g><svg viewBox="0 0 395.52 106.3751095822462" height="106.3751095822462" width="395.52"><path d="M394.594 22.815C392.735 11.774 387.435 8.704 387.435 8.704 371.165-2.669 350.86-0.218 332.619 1.417 300.414 1.483 268.339 3.912 236.208 5.215 168.767 5.414 100.749 2.145 33.643 10.206 27.339 12.679-6.54 10.692 1.121 24.229 3.129 29.86 10.456 36.11 10.232 41.277 11.236 42.183 12.631 40.107 13.226 41.41 15.309 44.921 18.711 43.265 21.501 45.34 17.614 50.883 20.403 55.499 23.062 60.335 18.377 61.594 12.371 60.998 9.675 65.171 9.396 68.197 7.89 67.623 6.235 67.49 5.026 67.402 2.59 67.733 2.999 68.683 4.394 71.929-1.594 73.806 2.162 76.986-0.422 80.431 3.948 83.412 3.353 87.144 3.278 87.895 3.687 88.536 4.338 88.712 7.22 89.662 3.018 91.517 3.464 93.526 33.029 107.262 65.104 97.766 95.394 104.082 103.259 99.666 97.346 105.65 100.489 104.723 102.943 103.641 104.728 108.124 107.499 105.584 107.927 104.855 107.276 103.133 108.8 103.464 109.6 103.641 110.307 103.596 110.418 102.581 110.586 101.057 109.117 102.006 108.726 101.211 112.947 97.192 111.906 106.754 115.866 106.357 115.68 105.187 114.528 103.508 116.889 103.729 119.232 102.051 119.306 100.659 121.389 104.436 121.463 105.253 121.835 105.827 122.43 106.224 128.938 102.117 135.409 107.682 142.233 105.827 146.417 103.795 150.433 106.931 154.672 106.158 156.16 105.54 157.666 104.436 159.098 106.291 176.632 106.688 195.319 105.032 211.943 106.357 256.364 103.884 303.836 107.373 350.674 104.104 361.719 102.846 373.192 101.057 383.958 99.621 383.958 99.621 392.679 95.691 392.679 78.024S394.538 62.566 394.817 48.498C395.096 34.431 396.398 33.857 394.538 22.815Z" opacity="1" fill="#8789fe" data-fill-palette-color="tertiary"></path><g transform="matrix(1,0,0,1,55.76832,26.068561146666667)"><svg width="283.98335999999995" viewBox="2.8 -34.95 185.33999999999997 35.400000000000006" height="54.23798728891286" data-palette-color="#ffffff"><path d="M2.8-33.95L2.8-33.95Q3.55-33.9 4.67-33.88 5.8-33.85 7.05-33.83 8.3-33.8 9.43-33.8 10.55-33.8 11.2-33.8L11.2-33.8 11.2-6.9Q11.2-5.05 11.55-4.05 11.9-3.05 12.9-2.65 13.9-2.25 15.75-2.25L15.75-2.25 15.75 0Q14.35 0 12.53 0 10.7 0 8.83 0.03 6.95 0.05 5.35 0.08 3.75 0.1 2.8 0.15L2.8 0.15Q2.8-0.55 2.85-1.07 2.9-1.6 3.05-2L3.05-2Q4.4-2.1 5.15-2.5 5.9-2.9 6.2-3.93 6.5-4.95 6.5-6.9L6.5-6.9 6.5-27.45Q6.5-29.15 6.2-30.05 5.9-30.95 5.15-31.35 4.4-31.75 3.05-31.8L3.05-31.8Q2.9-32.2 2.85-32.77 2.8-33.35 2.8-33.95ZM25.8-8.55L25.8-8.55Q26.55-8.35 27.05-8.08 27.55-7.8 28-7.35L28-7.35Q27.45-5.65 27.08-3.65 26.7-1.65 26.45 0.1L26.45 0.1Q25.5 0.05 23.88 0.05 22.25 0.05 20.18 0.03 18.1 0 15.75 0L15.75 0 15.75-2.25 16.05-2.25Q19.65-2.25 21.48-2.98 23.3-3.7 24.2-5.1 25.1-6.5 25.8-8.55ZM22.3-22.5L22.3-22.5Q22.25-21.25 22.23-19.8 22.2-18.35 22.2-17.05L22.2-17.05Q22.2-15.75 22.23-14.15 22.25-12.55 22.3-11.25L22.3-11.25Q21.65-11.25 21.1-11.3 20.55-11.35 20-11.5L20-11.5Q19.8-14.1 18.63-15.03 17.45-15.95 14.35-15.95L14.35-15.95 10.75-15.95 10.75-18.1 14.35-18.1Q17.45-18.1 18.65-18.9 19.85-19.7 19.9-22.15L19.9-22.15Q20.55-22.35 21.1-22.43 21.65-22.5 22.3-22.5ZM25.25-33.95L25.25-33.95Q25.35-32.85 25.5-31.4 25.65-29.95 25.85-28.55 26.05-27.15 26.3-26.05L26.3-26.05Q25.9-25.7 25.33-25.58 24.75-25.45 24.05-25.45L24.05-25.45Q23.95-27 23.25-28.45 22.55-29.9 20.83-30.85 19.1-31.8 15.85-31.8L15.85-31.8 10.15-31.8 11.2-33.8Q15.15-33.8 17.98-33.83 20.8-33.85 22.63-33.9 24.45-33.95 25.25-33.95ZM31.9 0.15L31.9 0.15Q31.9-0.55 31.95-1.07 32-1.6 32.15-2L32.15-2Q34.15-2.1 34.87-2.98 35.6-3.85 35.6-6.35L35.6-6.35 35.6-16.25Q35.6-17.45 35.35-18.2 35.1-18.95 34.3-19.35 33.5-19.75 31.85-19.8L31.85-19.8Q31.85-20.35 31.95-20.8 32.05-21.25 32.3-21.65L32.3-21.65Q33.15-21.7 34.42-21.98 35.7-22.25 36.9-22.63 38.1-23 38.75-23.35L38.75-23.35Q39.2-23.2 39.52-22.75 39.85-22.3 39.85-21.35L39.85-21.35Q39.85-20.55 39.77-19.5 39.7-18.45 39.45-16.4L39.45-16.4 38.95-16.35Q39.65-18.25 39.97-18.9 40.3-19.55 40.45-19.75L40.45-19.75Q41.25-20.9 43.12-22.13 45-23.35 47.6-23.35L47.6-23.35Q49.7-23.35 51.45-22.4 53.2-21.45 54-19.15L54-19.15Q54.2-18.55 54.2-17.5L54.2-17.5 54.05-17.5Q54.5-18.75 55.05-19.5L55.05-19.5Q55.9-20.65 57.75-21.88 59.6-23.1 62.2-23.1L62.2-23.1Q64.1-23.1 65.7-22.33 67.3-21.55 68.27-19.78 69.25-18 69.25-14.95L69.25-14.95 69.25-6.35Q69.25-4.65 69.57-3.73 69.9-2.8 70.57-2.45 71.25-2.1 72.25-2L72.25-2Q72.4-1.55 72.45-1.05 72.5-0.55 72.5 0.15L72.5 0.15Q71.4 0.05 69.97 0.03 68.55 0 67.05 0L67.05 0Q66.05 0 65 0.03 63.95 0.05 62.95 0.08 61.95 0.1 61.1 0.15L61.1 0.15Q61.1-0.55 61.15-1.07 61.2-1.6 61.35-2L61.35-2Q62.7-2.1 63.45-2.48 64.2-2.85 64.5-3.78 64.8-4.7 64.8-6.35L64.8-6.35 64.8-13.95Q64.8-17.5 63.52-18.78 62.25-20.05 60.2-20.05L60.2-20.05Q58.95-20.05 57.65-19.23 56.35-18.4 55.5-16.57 54.65-14.75 54.65-11.7L54.65-11.7 54.65-6.35Q54.65-3.75 55.45-2.93 56.25-2.1 58.15-2L58.15-2Q58.3-1.55 58.35-1.05 58.4-0.55 58.4 0.15L58.4 0.15Q57.15 0.05 55.52 0.03 53.9 0 52.45 0L52.45 0Q51 0 49.42 0.03 47.85 0.05 46.5 0.15L46.5 0.15Q46.5-0.55 46.55-1.07 46.6-1.6 46.75-2L46.75-2Q48.1-2.1 48.85-2.48 49.6-2.85 49.9-3.78 50.2-4.7 50.2-6.35L50.2-6.35 50.2-14.2Q50.2-17.75 48.92-19.03 47.65-20.3 45.6-20.3L45.6-20.3Q44.35-20.3 43.05-19.48 41.75-18.65 40.9-16.82 40.05-15 40.05-11.95L40.05-11.95 40.05-6.35Q40.05-3.85 40.8-2.98 41.55-2.1 43.55-2L43.55-2Q43.7-1.55 43.75-1.05 43.8-0.55 43.8 0.15L43.8 0.15Q42.95 0.1 41.9 0.08 40.85 0.05 39.8 0.03 38.75 0 37.85 0L37.85 0Q37 0 35.9 0.03 34.8 0.05 33.75 0.08 32.7 0.1 31.9 0.15ZM87.59 0.45L87.59 0.45Q84.2 0.45 81.64-1.03 79.09-2.5 77.7-5.18 76.3-7.85 76.3-11.45L76.3-11.45Q76.3-14.85 77.75-17.55 79.2-20.25 81.75-21.8 84.3-23.35 87.59-23.35L87.59-23.35Q91.15-23.35 93.67-21.85 96.2-20.35 97.55-17.68 98.9-15 98.9-11.45L98.9-11.45Q98.9-8.05 97.47-5.35 96.05-2.65 93.52-1.1 91 0.45 87.59 0.45ZM88-1.95L88-1.95Q91-1.95 92.45-4.42 93.9-6.9 93.9-10.85L93.9-10.85Q93.9-13.95 92.97-16.23 92.05-18.5 90.5-19.73 88.95-20.95 87.09-20.95L87.09-20.95Q84.2-20.95 82.77-18.6 81.34-16.25 81.34-12.5L81.34-12.5Q81.34-9.15 82.17-6.78 83-4.4 84.5-3.18 86-1.95 88-1.95ZM111.29 0.45L111.29 0.45Q108.34 0.45 106.92-1.07 105.49-2.6 105.49-6L105.49-6 105.49-19.55Q104.74-19.8 103.94-19.98 103.14-20.15 101.89-20.2L101.89-20.2Q101.89-20.85 101.99-21.33 102.09-21.8 102.34-22.4L102.34-22.4 105.49-22.4 105.49-29Q106.49-29.25 107.47-29.8 108.44-30.35 109.19-31L109.19-31Q109.69-30.8 109.84-30.4 109.99-30 109.99-28.4L109.99-28.4 109.99-22.4 116.49-22.4Q116.49-21.9 116.39-21.33 116.29-20.75 116.04-20.2L116.04-20.2Q114.24-20.15 112.74-19.98 111.24-19.8 109.99-19.55L109.99-19.55 109.99-7.05Q109.99-5.4 110.34-4.33 110.69-3.25 111.34-2.75 111.99-2.25 112.89-2.25L112.89-2.25Q113.94-2.25 114.72-2.55 115.49-2.85 116.19-3.45L116.19-3.45Q116.84-2.7 116.94-1.8L116.94-1.8Q116.14-0.85 114.52-0.2 112.89 0.45 111.29 0.45ZM120.29 0.15L120.29 0.15Q120.29-0.35 120.34-0.93 120.39-1.5 120.54-2L120.54-2Q122.54-2 123.27-2.93 123.99-3.85 123.99-6.35L123.99-6.35 123.99-16.25Q123.99-17.45 123.77-18.23 123.54-19 122.74-19.4 121.94-19.8 120.24-19.8L120.24-19.8Q120.24-20.35 120.34-20.8 120.44-21.25 120.69-21.65L120.69-21.65Q121.44-21.65 122.82-21.9 124.19-22.15 125.49-22.55 126.79-22.95 127.39-23.35L127.39-23.35Q127.84-23.2 128.17-22.75 128.49-22.3 128.49-21.35L128.49-21.35 128.49-6.35Q128.49-3.85 129.17-2.93 129.84-2 131.44-2L131.44-2Q131.59-1.5 131.64-0.85 131.69-0.2 131.69 0.15L131.69 0.15Q130.84 0.1 129.89 0.08 128.94 0.05 127.97 0.03 126.99 0 126.04 0L126.04 0Q125.09 0 124.07 0.03 123.04 0.05 122.09 0.08 121.14 0.1 120.29 0.15ZM125.84-29L125.84-29Q124.59-29 123.74-29.85 122.89-30.7 122.89-31.9L122.89-31.9Q122.89-33.25 123.79-34.1 124.69-34.95 125.84-34.95L125.84-34.95Q127.19-34.95 128.02-34.1 128.84-33.25 128.84-31.9L128.84-31.9Q128.84-30.75 127.97-29.88 127.09-29 125.84-29ZM146.79 0.45L146.79 0.45Q143.39 0.45 140.84-1.03 138.29-2.5 136.89-5.18 135.49-7.85 135.49-11.45L135.49-11.45Q135.49-14.85 136.94-17.55 138.39-20.25 140.94-21.8 143.49-23.35 146.79-23.35L146.79-23.35Q150.34-23.35 152.86-21.85 155.39-20.35 156.74-17.68 158.09-15 158.09-11.45L158.09-11.45Q158.09-8.05 156.66-5.35 155.24-2.65 152.71-1.1 150.19 0.45 146.79 0.45ZM147.19-1.95L147.19-1.95Q150.19-1.95 151.64-4.42 153.09-6.9 153.09-10.85L153.09-10.85Q153.09-13.95 152.16-16.23 151.24-18.5 149.69-19.73 148.14-20.95 146.29-20.95L146.29-20.95Q143.39-20.95 141.96-18.6 140.54-16.25 140.54-12.5L140.54-12.5Q140.54-9.15 141.36-6.78 142.19-4.4 143.69-3.18 145.19-1.95 147.19-1.95ZM170.14-21.15L165.64-10.7 165.64-16.25Q165.64-17.45 165.39-18.2 165.14-18.95 164.34-19.35 163.53-19.75 161.89-19.8L161.89-19.8Q161.89-20.35 161.99-20.8 162.09-21.25 162.34-21.65L162.34-21.65Q163.89-21.75 165.89-22.25 167.89-22.75 169.03-23.35L169.03-23.35Q169.49-23.2 169.81-22.73 170.14-22.25 170.14-21.15L170.14-21.15ZM184.94-14.95L184.94-6.35Q184.94-3.75 185.66-2.88 186.39-2 187.89-2L187.89-2Q188.04-1.55 188.09-1.05 188.14-0.55 188.14 0.15L188.14 0.15Q187.04 0.05 185.64 0.03 184.24 0 182.69 0L182.69 0Q181.69 0 180.59 0.03 179.49 0.05 178.51 0.08 177.53 0.1 176.74 0.15L176.74 0.15Q176.74-0.55 176.78-1.07 176.84-1.6 176.99-2L176.99-2Q178.78-2 179.61-2.93 180.44-3.85 180.44-6.35L180.44-6.35 180.44-13.95Q180.44-17.5 179.14-18.78 177.84-20.05 175.78-20.05L175.78-20.05Q174.49-20.05 173.19-19.23 171.89-18.4 171.01-16.57 170.14-14.75 170.14-11.7L170.14-11.7 170.14-6.35Q170.14-3.85 170.89-2.93 171.64-2 173.59-2L173.59-2Q173.74-1.55 173.78-1.05 173.84-0.55 173.84 0.15L173.84 0.15Q173.14 0.1 172.14 0.08 171.14 0.05 170.03 0.03 168.94 0 167.89 0L167.89 0Q166.89 0 165.78 0.03 164.69 0.05 163.69 0.08 162.69 0.1 161.94 0.15L161.94 0.15Q161.94-0.55 161.99-1.07 162.03-1.6 162.19-2L162.19-2Q164.14-2 164.89-2.93 165.64-3.85 165.64-6.35L165.64-6.35 165.64-16.25 170.14-21.15Q170.14-20.55 170.09-19.8 170.03-19.05 169.78-18.2L169.78-18.2Q169.94-18.45 170.09-18.78 170.24-19.1 170.53-19.5L170.53-19.5Q171.39-20.65 173.26-21.88 175.14-23.1 177.78-23.1L177.78-23.1Q179.69-23.1 181.31-22.33 182.94-21.55 183.94-19.78 184.94-18 184.94-14.95L184.94-14.95Z" opacity="1" transform="matrix(1,0,0,1,0,0)" fill="#ffffff" class="wordmark-text-0" data-fill-palette-color="quaternary" id="text-0"></path></svg></g></svg></g><g transform="matrix(1,0,0,1,0,119.17939666946359)"><svg viewBox="0 0 232.20979199999996 22.90135815375706" height="22.90135815375706" width="232.20979199999996"><g transform="matrix(1,0,0,1,0,0)"><svg width="232.20979199999996" viewBox="1.1323809523809523 -40.16 565.3276190476191 55.76" height="22.90135815375706" data-palette-color="#8789fe"><path d="M14.99-18.77L7.64-18.77Q7.5-18.77 7.5-18.55L7.5-18.55 7.5-5.08Q7.5-3.61 8.14-2.78 8.79-1.95 9.79-1.95 10.79-1.95 11.54-2.28 12.28-2.61 12.83-3 13.38-3.39 13.82-3.72 14.26-4.05 14.6-4.05 14.94-4.05 14.94-3.88L14.94-3.88Q14.94-3.3 14.82-3.13L14.82-3.13Q11.89 0.66 9.17 0.66 6.45 0.66 5.07-1.06 3.69-2.78 3.69-5.18L3.69-5.18 3.69-18.77 1.86-18.77Q1.17-18.77 1.14-19.21 1.1-19.65 1.27-19.78L1.27-19.78Q2.56-20.61 4.83-22.75L4.83-22.75Q5.08-23.02 5.49-23.56 5.91-24.1 6.7-25.02 7.5-25.95 7.91-25.95 8.33-25.95 8.33-25.61L8.33-25.61Q8.33-25.56 7.5-22.41L7.5-22.41Q7.5-21.97 7.89-21.95L7.89-21.95 14.11-21.95Q15.19-21.95 15.19-18.92L15.19-18.92Q15.19-18.77 14.99-18.77L14.99-18.77ZM24.12-39.58L24.12-18.9Q24.12-18.31 24.29-18.31 24.46-18.31 24.53-18.4 24.61-18.48 25.56-19.53L25.56-19.53Q28.32-22.61 31.15-22.61L31.15-22.61Q34.86-22.61 36.59-20.95L36.59-20.95Q38.72-18.85 38.72-13.89L38.72-13.89 38.72-3.71Q38.72-1.32 41.35-0.93L41.35-0.93Q42.5-0.78 42.5-0.42 42.5-0.05 42.26 0L42.26 0 31.37 0Q31.13-0.05 31.13-0.34L31.13-0.34Q31.13-0.78 32.27-0.93L32.27-0.93Q34.91-1.32 34.91-3.71L34.91-3.71 34.91-13.65Q34.91-17.24 34.4-18.31L34.4-18.31Q33.42-20.46 30.32-20.46L30.32-20.46Q28.42-20.46 26.27-18.84 24.12-17.21 24.12-15.26L24.12-15.26 24.12-3.71Q24.12-1.32 26.76-0.93L26.76-0.93Q27.9-0.78 27.9-0.42 27.9-0.05 27.66 0L27.66 0 16.77 0Q16.53-0.05 16.53-0.34L16.53-0.34Q16.53-0.78 17.67-0.93L17.67-0.93Q20.31-1.32 20.31-3.71L20.31-3.71 20.31-34.16Q20.31-35.18 19.19-35.57L19.19-35.57Q18.7-35.74 18.14-35.85 17.58-35.96 17.25-36.06 16.92-36.16 16.83-36.24 16.75-36.33 16.75-36.61 16.75-36.89 17.11-37.08L17.11-37.08 23.34-40.01Q23.63-40.16 23.7-40.16L23.7-40.16Q24.12-40.16 24.12-39.58L24.12-39.58ZM63.03-12.87L48.87-12.87Q48.46-12.87 48.46-11.08L48.46-11.08Q48.46-7.3 50.7-4.74 52.95-2.17 56.28-2.17 59.61-2.17 62.69-5.05L62.69-5.05Q62.74-5.1 62.81-5.1L62.81-5.1 62.93-5.1Q63.08-5.1 63.22-4.87 63.35-4.64 63.47-4.57L63.47-4.57Q60.64-1.12 56.81 0.2L56.81 0.2Q55.49 0.66 53.83 0.66 52.17 0.66 50.46-0.26 48.75-1.17 47.53-2.66L47.53-2.66Q44.94-5.76 44.94-10.39 44.94-15.01 47.76-18.82 50.58-22.63 55.51-22.63L55.51-22.63Q59.05-22.63 61.3-19.47 63.54-16.31 63.54-13.92L63.54-13.92Q63.54-12.87 63.03-12.87L63.03-12.87ZM49.14-15.5L49.14-15.21Q49.14-14.75 49.58-14.75L49.58-14.75 58.78-14.75Q59.42-14.75 59.42-15.5L59.42-15.5Q59.42-17.26 57.84-19.1 56.27-20.95 54.39-20.95L54.39-20.95Q52.56-20.95 51.06-19.29 49.56-17.63 49.14-15.5L49.14-15.5ZM87.03-39.58L87.03-20.43Q87.03-19.68 87.38-19.68 87.73-19.68 90.49-21.26L90.49-21.26Q93.72-22.63 95.4-22.63 97.08-22.63 98.62-21.66 100.16-20.68 101.24-19.09L101.24-19.09Q103.51-15.82 103.51-11.16 103.51-6.49 100.27-2.92 97.04 0.66 91.74 0.66L91.74 0.66Q88.3 0.66 85.39-0.17L85.39-0.17Q84.54-0.42 83.94-0.56 83.34-0.71 83.28-0.87 83.22-1.03 83.22-1.25L83.22-1.25 83.22-34.16Q83.22-35.18 82.09-35.57L82.09-35.57Q81.61-35.74 81.04-35.85 80.48-35.96 80.15-36.06 79.82-36.16 79.74-36.24 79.65-36.33 79.65-36.61 79.65-36.89 80.02-37.08L80.02-37.08 86.24-40.01Q86.54-40.16 86.61-40.16L86.61-40.16Q87.03-40.16 87.03-39.58L87.03-39.58ZM92.2-19.65L92.2-19.65Q90.03-19.65 87.32-18.09L87.32-18.09Q87.03-17.92 87.03-17.5L87.03-17.5 87.03-5.96Q87.27-3.74 88.95-2.49 90.64-1.25 92.64-1.25L92.64-1.25Q96.16-1.25 98.07-4.03 99.99-6.81 99.99-10.38 99.99-13.94 98.04-16.8 96.08-19.65 92.2-19.65ZM125.99-12.87L111.83-12.87Q111.41-12.87 111.41-11.08L111.41-11.08Q111.41-7.3 113.66-4.74 115.91-2.17 119.24-2.17 122.57-2.17 125.65-5.05L125.65-5.05Q125.7-5.1 125.77-5.1L125.77-5.1 125.89-5.1Q126.04-5.1 126.17-4.87 126.31-4.64 126.43-4.57L126.43-4.57Q123.6-1.12 119.76 0.2L119.76 0.2Q118.44 0.66 116.78 0.66 115.12 0.66 113.42-0.26 111.71-1.17 110.49-2.66L110.49-2.66Q107.9-5.76 107.9-10.39 107.9-15.01 110.72-18.82 113.54-22.63 118.47-22.63L118.47-22.63Q122.01-22.63 124.26-19.47 126.5-16.31 126.5-13.92L126.5-13.92Q126.5-12.87 125.99-12.87L125.99-12.87ZM112.1-15.5L112.1-15.21Q112.1-14.75 112.54-14.75L112.54-14.75 121.74-14.75Q122.38-14.75 122.38-15.5L122.38-15.5Q122.38-17.26 120.8-19.1 119.23-20.95 117.35-20.95L117.35-20.95Q115.51-20.95 114.01-19.29 112.51-17.63 112.1-15.5L112.1-15.5ZM142.44-18.95L142.44-16.7Q142.44-16.16 142.04-16.16 141.64-16.16 141.42-16.75L141.42-16.75Q140.83-18.36 139.67-19.6 138.51-20.85 136.8-20.85L136.8-20.85Q134.56-20.85 133.77-18.6L133.77-18.6Q133.53-17.85 133.53-17.04 133.53-16.24 134.56-15.25 135.58-14.26 137.92-12.89 140.27-11.52 141.34-10.57L141.34-10.57Q143.78-8.4 143.78-5.54 143.78-2.69 141.68-1.01 139.58 0.66 136.8 0.66L136.8 0.66Q135.31 0.66 134.1 0.26 132.9-0.15 132.71-0.15 132.53-0.15 132.13 0.26 131.72 0.66 131.48 0.66L131.48 0.66 131.06 0.66Q130.92 0.66 130.7-1.98 130.48-4.61 130.48-5.1 130.48-5.59 130.56-5.64 130.65-5.69 130.84-5.69 131.04-5.69 131.17-5.57 131.31-5.44 131.41-5.26 131.5-5.08 131.56-4.88 131.63-4.69 131.87-4.15L131.87-4.15Q133.53-0.61 137-0.61L137-0.61Q138.53-0.61 139.46-1.75 140.39-2.88 140.39-4.27 140.39-5.66 139.66-6.62 138.93-7.57 137.84-8.35 136.75-9.13 135.48-9.86L135.48-9.86Q130.55-12.74 130.55-16.24L130.55-16.24Q130.55-18.85 132.8-20.74 135.04-22.63 137.41-22.63 139.78-22.63 140.92-22.12 142.05-21.61 142.25-21.25 142.44-20.9 142.44-18.95L142.44-18.95ZM160.6-18.77L153.25-18.77Q153.11-18.77 153.11-18.55L153.11-18.55 153.11-5.08Q153.11-3.61 153.75-2.78 154.4-1.95 155.4-1.95 156.4-1.95 157.15-2.28 157.89-2.61 158.44-3 158.99-3.39 159.43-3.72 159.87-4.05 160.21-4.05 160.55-4.05 160.55-3.88L160.55-3.88Q160.55-3.3 160.43-3.13L160.43-3.13Q157.5 0.66 154.78 0.66 152.06 0.66 150.68-1.06 149.3-2.78 149.3-5.18L149.3-5.18 149.3-18.77 147.47-18.77Q146.78-18.77 146.75-19.21 146.71-19.65 146.88-19.78L146.88-19.78Q148.18-20.61 150.45-22.75L150.45-22.75Q150.69-23.02 151.11-23.56 151.52-24.1 152.31-25.02 153.11-25.95 153.52-25.95 153.94-25.95 153.94-25.61L153.94-25.61Q153.94-25.56 153.11-22.41L153.11-22.41Q153.11-21.97 153.5-21.95L153.5-21.95 159.72-21.95Q160.8-21.95 160.8-18.92L160.8-18.92Q160.8-18.77 160.6-18.77L160.6-18.77ZM175.93-33.62L175.93-34.3Q175.93-34.5 176.12-34.5L176.12-34.5 176.66-34.5 184.5-34.67Q185.92-34.72 187.58-34.72L187.58-34.72 190.63-34.72Q194.87-34.72 197.01-34.4 199.15-34.08 201.21-33.65 203.27-33.23 205.6-31.71 207.94-30.2 209.65-28.05L209.65-28.05Q213.26-23.46 213.26-18.14 213.26-12.82 210.48-8.59L210.48-8.59Q206.47-2.47 198.88-0.59L198.88-0.59Q196.46 0 193.92 0L193.92 0 176.12 0Q175.93 0 175.93-0.2L175.93-0.2 175.93-0.88Q175.93-1.07 176.12-1.07L176.12-1.07 176.66-1.07Q181.11-1.07 181.11-3.91L181.11-3.91 181.11-30.66Q181.11-32.03 180.06-32.73 179.01-33.42 177.69-33.42L177.69-33.42 176.12-33.42Q175.93-33.42 175.93-33.62L175.93-33.62ZM193.12-33.57L186.48-33.57Q185.87-33.57 185.87-32.91L185.87-32.91 185.87-3.05Q185.87-1.25 189.26-1.17L189.26-1.17Q190.26-1.15 191.36-1.15L191.36-1.15Q199.15-1.15 203.6-5.52 208.06-9.89 208.06-17.15 208.06-24.41 203.94-28.99 199.83-33.57 193.12-33.57L193.12-33.57ZM228.05 0L217.16 0Q216.92-0.05 216.92-0.34L216.92-0.34Q216.92-0.78 218.07-0.93L218.07-0.93Q220.7-1.32 220.7-3.71L220.7-3.71 220.7-16.63Q220.7-17.65 219.58-18.04L219.58-18.04Q219.09-18.21 218.53-18.32 217.97-18.43 217.64-18.53 217.31-18.63 217.22-18.71 217.14-18.8 217.14-19.08 217.14-19.36 217.5-19.56L217.5-19.56 223.73-22.49Q224.02-22.63 224.1-22.63L224.1-22.63Q224.51-22.63 224.51-22.05L224.51-22.05 224.51-3.71Q224.51-1.32 227.15-0.93L227.15-0.93Q228.3-0.78 228.3-0.42 228.3-0.05 228.05 0L228.05 0ZM222.25-29.49Q221.24-29.49 220.47-30.13 219.7-30.76 219.7-31.9 219.7-33.03 220.43-33.69 221.17-34.35 222.18-34.35 223.19-34.35 223.89-33.57 224.58-32.79 224.58-31.88 224.58-30.98 223.93-30.24 223.27-29.49 222.25-29.49ZM249.51-20.29L249.51-20.29Q249.51-20.29 256.05-20.58L256.05-20.58Q256.61-20.58 256.78-20.46 256.95-20.34 257.15-19.62 257.35-18.9 257.35-18.26 257.35-17.63 257.22-17.53 257.1-17.43 256.74-17.43L256.74-17.43 251.32-17.43Q251.46-17.16 251.63-16.87 251.8-16.58 252.07-15.89 252.34-15.21 252.34-13.78 252.34-12.35 251.64-10.8 250.95-9.25 249.61-8.06L249.61-8.06Q246.63-5.37 241.89-5.37L241.89-5.37Q240.65-5.37 239.16-5.83L239.16-5.83Q238.79-5.44 238.18-5.11 237.57-4.79 236.98-4.44L236.98-4.44Q235.52-3.61 235.52-2.78L235.52-2.78Q235.52-0.71 242.4-0.66 249.29-0.61 251.45-0.21 253.61 0.2 254.81 1.39L254.81 1.39Q256.69 3.27 256.69 5.69L256.69 5.69Q256.69 7.76 254.9 9.96L254.9 9.96Q251.8 13.84 245.43 15.14L245.43 15.14Q243.16 15.6 240.62 15.6L240.62 15.6Q236.01 15.6 233.62 13.93 231.22 12.26 231.22 9.89L231.22 9.89Q231.22 8.59 231.83 7.75 232.44 6.91 233.38 6.16 234.32 5.42 235.45 4.6 236.57 3.78 237.59 2.51L237.59 2.51Q235.25 2.32 233.58 1.03 231.91-0.27 231.91-1.51 231.91-2.76 232.57-3.36 233.22-3.96 234.18-4.38 235.13-4.81 236.18-5.18 237.23-5.54 238.01-6.13L238.01-6.13Q235.28-7.2 233.79-9.09 232.3-10.99 232.3-13.23L232.3-13.23Q232.3-17.41 235.34-20.04 238.38-22.68 242.67-22.68 246.97-22.68 249.51-20.29ZM236.24 5.18Q235.67 5.74 235.3 6.37 234.93 7.01 234.93 7.97 234.93 8.94 235.63 10 236.33 11.06 237.52 11.91L237.52 11.91Q240.16 13.87 243.87 13.87 247.58 13.87 250.6 11.71 253.61 9.55 253.61 6.97 253.61 4.39 251.12 3.52L251.12 3.52Q249.95 3.13 245.09 3.03 240.23 2.93 238.79 2.76L238.79 2.76Q238.16 3.49 237.48 4.05 236.81 4.61 236.24 5.18ZM248.34-13.79Q248.34-17.24 246.62-19.4 244.89-21.56 242.06-21.56L242.06-21.56Q238.4-21.56 236.89-18.12L236.89-18.12Q236.3-16.8 236.3-15.09L236.3-15.09Q236.3-11.6 237.74-9.28L237.74-9.28Q239.5-6.49 242.36-6.49 245.21-6.49 246.77-8.42 248.34-10.35 248.34-13.79ZM270.14 0L259.25 0Q259-0.05 259-0.34L259-0.34Q259-0.78 260.15-0.93L260.15-0.93Q262.79-1.32 262.79-3.71L262.79-3.71 262.79-16.63Q262.79-17.65 261.66-18.04L261.66-18.04Q261.18-18.21 260.61-18.32 260.05-18.43 259.72-18.53 259.39-18.63 259.31-18.71 259.22-18.8 259.22-19.08 259.22-19.36 259.59-19.56L259.59-19.56 265.81-22.49Q266.11-22.63 266.18-22.63L266.18-22.63Q266.6-22.63 266.6-22.05L266.6-22.05 266.6-3.71Q266.6-1.32 269.23-0.93L269.23-0.93Q270.38-0.78 270.38-0.42 270.38-0.05 270.14 0L270.14 0ZM264.34-29.49Q263.32-29.49 262.56-30.13 261.79-30.76 261.79-31.9 261.79-33.03 262.52-33.69 263.25-34.35 264.26-34.35 265.28-34.35 265.97-33.57 266.67-32.79 266.67-31.88 266.67-30.98 266.01-30.24 265.35-29.49 264.34-29.49ZM286.59-18.77L279.24-18.77Q279.09-18.77 279.09-18.55L279.09-18.55 279.09-5.08Q279.09-3.61 279.74-2.78 280.39-1.95 281.39-1.95 282.39-1.95 283.13-2.28 283.88-2.61 284.43-3 284.98-3.39 285.42-3.72 285.86-4.05 286.2-4.05 286.54-4.05 286.54-3.88L286.54-3.88Q286.54-3.3 286.42-3.13L286.42-3.13Q283.49 0.66 280.77 0.66 278.04 0.66 276.66-1.06 275.28-2.78 275.28-5.18L275.28-5.18 275.28-18.77 273.45-18.77Q272.77-18.77 272.73-19.21 272.7-19.65 272.87-19.78L272.87-19.78Q274.16-20.61 276.43-22.75L276.43-22.75Q276.68-23.02 277.09-23.56 277.51-24.1 278.3-25.02 279.09-25.95 279.51-25.95 279.92-25.95 279.92-25.61L279.92-25.61Q279.92-25.56 279.09-22.41L279.09-22.41Q279.09-21.97 279.48-21.95L279.48-21.95 285.71-21.95Q286.78-21.95 286.78-18.92L286.78-18.92Q286.78-18.77 286.59-18.77L286.59-18.77ZM304.19-4.03Q304.19-3.39 304.79-3.02 305.38-2.64 306.17-2.64 306.95-2.64 307.47-3.04 308-3.44 308.19-3.44 308.39-3.44 308.39-2.92 308.39-2.39 307.9-2.03L307.9-2.03Q304.24 0.66 302.94 0.66L302.94 0.66Q301.38 0.66 300.4-2.59L300.4-2.59Q300.33-2.83 300.28-2.81L300.28-2.81Q297.26-0.54 296.47-0.07L296.47-0.07Q294.47 1.07 292.46 0.29 290.44-0.49 289.54-2.29L289.54-2.29Q289.1-3.22 289.1-4.27L289.1-4.27Q289.1-6.35 290.64-7.57 292.18-8.79 296.5-9.91L296.5-9.91Q297.96-10.3 299.11-10.91 300.26-11.52 300.32-11.69 300.38-11.87 300.38-12.01L300.38-12.01 300.38-16.7Q300.38-19.46 298.23-20.58L298.23-20.58Q297.52-20.95 296.53-20.95 295.55-20.95 294.53-20.17 293.52-19.38 293.52-17.94L293.52-17.94 293.64-16.99Q293.5-16.7 291.88-16.02 290.27-15.33 290.03-15.28L290.03-15.28Q289.64-15.28 289.64-16.22 289.64-17.16 290.2-18.31 290.76-19.46 291.79-20.41L291.79-20.41Q294.18-22.63 297.26-22.63 300.33-22.63 302.26-20.94 304.19-19.24 304.19-16.89L304.19-16.89 304.19-4.03ZM292.93-4.74Q292.93-3.56 293.84-2.7 294.74-1.83 295.9-1.83 297.06-1.83 298.72-2.82 300.38-3.81 300.38-4.86L300.38-4.86 300.38-9.81Q300.38-10.08 300.26-10.08 300.14-10.08 300.09-10.06L300.09-10.06 294.42-7.42Q293.54-6.79 293.24-6.35 292.93-5.91 292.93-4.74ZM319.71-0.93L319.71-0.93Q320.86-0.78 320.86-0.34L320.86-0.34Q320.86-0.05 320.62 0L320.62 0 309.73 0Q309.48-0.05 309.48-0.34L309.48-0.34Q309.48-0.78 310.63-0.93L310.63-0.93Q313.27-1.32 313.27-3.71L313.27-3.71 313.27-34.16Q313.27-35.18 312.15-35.57L312.15-35.57Q311.66-35.74 311.1-35.85 310.53-35.96 310.2-36.06 309.87-36.16 309.79-36.24 309.7-36.33 309.7-36.61 309.7-36.89 310.07-37.08L310.07-37.08 316.3-40.01Q316.59-40.16 316.66-40.16L316.66-40.16Q317.08-40.16 317.08-39.58L317.08-39.58 317.08-3.71Q317.08-1.32 319.71-0.93ZM348.13-0.78L348.13-0.2Q348.13 0 347.93 0L347.93 0 335.46 0Q335.26 0 335.26-0.2L335.26-0.2 335.26-0.78Q335.26-0.98 335.58-0.98L335.58-0.98Q338.92-1.12 340.09-4.54L340.09-4.54 350.06-33.37Q350.08-33.42 350.08-33.5L350.08-33.5 349.81-34.3Q349.81-34.42 349.91-34.42L349.91-34.42 354.79-34.42Q354.84-34.4 354.93-34.38 355.01-34.35 355.06-34.23L355.06-34.23 365.39-5.25Q365.73-4.59 365.94-4.05 366.14-3.52 366.41-3.08L366.41-3.08Q367-2.08 368.34-1.54L368.34-1.54Q369.46-0.98 370.39-0.98L370.39-0.98Q370.59-0.98 370.59-0.76L370.59-0.76 370.59-0.2Q370.59 0 370.39 0L370.39 0 355.45 0Q355.26 0 355.26-0.2L355.26-0.2 355.26-0.78Q355.26-0.98 356.16-1.03 357.06-1.07 357.65-1.12L357.65-1.12Q361.04-1.49 361.04-3.42L361.04-3.42Q361.04-3.56 360.99-3.76L360.99-3.76 357.31-14.16Q357.28-14.21 357.21-14.38L357.21-14.38Q356.92-15.21 356.18-15.21L356.18-15.21 347.52-15.21Q346.78-15.21 346.37-14.4L346.37-14.4Q346.3-14.23 346.3-14.21L346.3-14.21 342.63-3.49 342.63-3.27Q342.63-2.64 343.29-2.12L343.29-2.12Q344.78-0.98 347.3-0.98L347.3-0.98 347.93-0.98Q348.13-0.98 348.13-0.78L348.13-0.78ZM348.15-17.92L355.35-17.92Q355.79-17.92 355.79-18.29L355.79-18.29Q355.79-18.48 355.69-18.73L355.69-18.73 352.06-28.74Q351.81-29.39 351.69-29.39L351.69-29.39Q351.57-29.39 351.3-28.71L351.3-28.71 347.88-18.73Q347.78-18.48 347.78-18.2 347.78-17.92 348.15-17.92L348.15-17.92ZM387.26-17.5L387.26-17.5Q386.97-17.55 386.41-17.82L386.41-17.82Q384.38-18.75 383.23-18.75 382.08-18.75 380.83-17.32 379.57-15.89 379.57-14.75L379.57-14.75 379.57-3.71Q379.57-1.88 381.69-1.27L381.69-1.27Q382.62-1.03 383.43-0.92 384.23-0.81 384.46-0.71 384.7-0.61 384.7-0.33 384.7-0.05 384.45 0L384.45 0 372.22 0Q371.98-0.05 371.98-0.34L371.98-0.34Q371.98-0.78 373.12-0.93L373.12-0.93Q375.76-1.32 375.76-3.71L375.76-3.71 375.76-16.63Q375.76-17.65 374.64-18.04L374.64-18.04Q374.15-18.21 373.59-18.32 373.03-18.43 372.7-18.53 372.37-18.63 372.28-18.71 372.2-18.8 372.2-19.08 372.2-19.36 372.56-19.56L372.56-19.56 378.79-22.49Q379.08-22.63 379.15-22.63L379.15-22.63Q379.57-22.63 379.57-22.05L379.57-22.05 379.57-18.09Q379.57-17.8 379.72-17.8L379.72-17.8Q379.91-17.8 380.72-18.95L380.72-18.95Q383.04-22.19 384.55-22.19L384.55-22.19Q385.4-22.19 387.17-21.51 388.94-20.83 388.94-20.36L388.94-20.36Q388.94-19.8 388.38-18.65 387.82-17.5 387.26-17.5ZM403.93-18.77L396.58-18.77Q396.44-18.77 396.44-18.55L396.44-18.55 396.44-5.08Q396.44-3.61 397.08-2.78 397.73-1.95 398.73-1.95 399.73-1.95 400.48-2.28 401.22-2.61 401.77-3 402.32-3.39 402.76-3.72 403.2-4.05 403.54-4.05 403.88-4.05 403.88-3.88L403.88-3.88Q403.88-3.3 403.76-3.13L403.76-3.13Q400.83 0.66 398.11 0.66 395.39 0.66 394.01-1.06 392.63-2.78 392.63-5.18L392.63-5.18 392.63-18.77 390.8-18.77Q390.11-18.77 390.08-19.21 390.04-19.65 390.21-19.78L390.21-19.78Q391.51-20.61 393.78-22.75L393.78-22.75Q394.02-23.02 394.43-23.56 394.85-24.1 395.64-25.02 396.44-25.95 396.85-25.95 397.27-25.95 397.27-25.61L397.27-25.61Q397.27-25.56 396.44-22.41L396.44-22.41Q396.44-21.97 396.83-21.95L396.83-21.95 403.05-21.95Q404.13-21.95 404.13-18.92L404.13-18.92Q404.13-18.77 403.93-18.77L403.93-18.77ZM418.28-18.95L418.28-16.7Q418.28-16.16 417.88-16.16 417.48-16.16 417.26-16.75L417.26-16.75Q416.67-18.36 415.51-19.6 414.35-20.85 412.65-20.85L412.65-20.85Q410.4-20.85 409.62-18.6L409.62-18.6Q409.37-17.85 409.37-17.04 409.37-16.24 410.4-15.25 411.42-14.26 413.77-12.89 416.11-11.52 417.19-10.57L417.19-10.57Q419.63-8.4 419.63-5.54 419.63-2.69 417.53-1.01 415.43 0.66 412.65 0.66L412.65 0.66Q411.16 0.66 409.95 0.26 408.74-0.15 408.56-0.15 408.37-0.15 407.97 0.26 407.57 0.66 407.32 0.66L407.32 0.66 406.91 0.66Q406.76 0.66 406.54-1.98 406.32-4.61 406.32-5.1 406.32-5.59 406.41-5.64 406.49-5.69 406.69-5.69 406.88-5.69 407.02-5.57 407.15-5.44 407.25-5.26 407.35-5.08 407.41-4.88 407.47-4.69 407.71-4.15L407.71-4.15Q409.37-0.61 412.84-0.61L412.84-0.61Q414.38-0.61 415.31-1.75 416.23-2.88 416.23-4.27 416.23-5.66 415.5-6.62 414.77-7.57 413.68-8.35 412.6-9.13 411.33-9.86L411.33-9.86Q406.4-12.74 406.4-16.24L406.4-16.24Q406.4-18.85 408.64-20.74 410.89-22.63 413.26-22.63 415.62-22.63 416.76-22.12 417.89-21.61 418.09-21.25 418.28-20.9 418.28-18.95L418.28-18.95ZM468.77-7.69L468.77-7.69 468.72-12.84Q468.72-15.99 468.18-17.26 467.65-18.53 466.82-19.18 465.99-19.82 464.58-19.82 463.18-19.82 458.64-17.63L458.64-17.63Q458.03-17.26 458-16.94L458-16.94 458-3.81Q458-1.34 460.64-0.98L460.64-0.98Q461.79-0.81 461.79-0.43 461.79-0.05 461.54 0L461.54 0 450.65 0Q450.41-0.05 450.41-0.34L450.41-0.34Q450.41-0.81 451.56-0.98L451.56-0.98Q454.19-1.34 454.19-3.81L454.19-3.81 454.19-15.97Q454.19-19.8 449.46-19.8L449.46-19.8Q447.72-19.8 444.65-17.75L444.65-17.75Q443.87-17.24 443.5-16.8L443.5-16.8 443.5-3.81Q443.5-1.34 446.14-0.98L446.14-0.98Q447.28-0.81 447.28-0.43 447.28-0.05 447.04 0L447.04 0 436.15 0Q435.91-0.05 435.91-0.34L435.91-0.34Q435.91-0.81 437.05-0.98L437.05-0.98Q439.69-1.34 439.69-3.76L439.69-3.76 439.69-17.82Q439.69-18.85 438.57-19.24L438.57-19.24Q438.08-19.41 437.52-19.52 436.96-19.63 436.63-19.73 436.3-19.82 436.21-19.91 436.13-20 436.13-20.28 436.13-20.56 436.49-20.75L436.49-20.75 442.72-23.68Q443.01-23.83 443.08-23.83L443.08-23.83Q443.5-23.83 443.5-23.24L443.5-23.24 443.5-19.19Q443.52-19.04 443.68-19.04 443.84-19.04 444.49-19.38 445.14-19.73 446.19-20.35 447.24-20.97 448.96-21.8 450.68-22.63 452.61-22.63L452.61-22.63Q455.71-22.63 457.05-19.97L457.05-19.97Q457.56-18.9 457.98-19.06 458.39-19.21 459.27-19.65L459.27-19.65Q461.35-20.68 463.47-21.66 465.59-22.63 466.99-22.63L466.99-22.63Q472.63-22.63 472.63-12.35L472.63-12.35 472.41-5.22 472.41-3.81Q472.41-1.9 474.31-1.32L474.31-1.32Q475.12-1.05 475.86-0.94 476.61-0.83 476.84-0.73 477.07-0.63 477.07-0.34 477.07-0.05 476.82 0L476.82 0 465.06 0Q464.81-0.05 464.81-0.34L464.81-0.34Q464.81-0.81 465.96-0.98L465.96-0.98Q468.57-1.34 468.57-4L468.57-4Q468.77-5.22 468.77-7.69ZM493.96-4.03Q493.96-3.39 494.56-3.02 495.16-2.64 495.94-2.64 496.72-2.64 497.24-3.04 497.77-3.44 497.96-3.44 498.16-3.44 498.16-2.92 498.16-2.39 497.67-2.03L497.67-2.03Q494.01 0.66 492.72 0.66L492.72 0.66Q491.15 0.66 490.18-2.59L490.18-2.59Q490.1-2.83 490.05-2.81L490.05-2.81Q487.03-0.54 486.25-0.07L486.25-0.07Q484.24 1.07 482.23 0.29 480.22-0.49 479.31-2.29L479.31-2.29Q478.87-3.22 478.87-4.27L478.87-4.27Q478.87-6.35 480.41-7.57 481.95-8.79 486.27-9.91L486.27-9.91Q487.74-10.3 488.88-10.91 490.03-11.52 490.09-11.69 490.15-11.87 490.15-12.01L490.15-12.01 490.15-16.7Q490.15-19.46 488-20.58L488-20.58Q487.3-20.95 486.31-20.95 485.32-20.95 484.31-20.17 483.29-19.38 483.29-17.94L483.29-17.94 483.41-16.99Q483.27-16.7 481.66-16.02 480.05-15.33 479.8-15.28L479.8-15.28Q479.41-15.28 479.41-16.22 479.41-17.16 479.97-18.31 480.53-19.46 481.56-20.41L481.56-20.41Q483.95-22.63 487.03-22.63 490.1-22.63 492.03-20.94 493.96-19.24 493.96-16.89L493.96-16.89 493.96-4.03ZM482.71-4.74Q482.71-3.56 483.61-2.7 484.51-1.83 485.67-1.83 486.83-1.83 488.49-2.82 490.15-3.81 490.15-4.86L490.15-4.86 490.15-9.81Q490.15-10.08 490.03-10.08 489.91-10.08 489.86-10.06L489.86-10.06 484.2-7.42Q483.32-6.79 483.01-6.35 482.71-5.91 482.71-4.74ZM507.75-11.69L507.73-11.69Q507.44-11.69 507.44-10.5L507.44-10.5 507.44-3.71Q507.44-1.32 510.07-0.93L510.07-0.93Q511.22-0.78 511.22-0.39 511.22 0 510.98 0L510.98 0 500.09 0Q499.84-0.05 499.84-0.34L499.84-0.34Q499.84-0.78 500.99-0.93L500.99-0.93Q503.63-1.32 503.63-3.71L503.63-3.71 503.63-34.16Q503.63-35.18 502.5-35.57L502.5-35.57Q502.02-35.74 501.45-35.85 500.89-35.96 500.56-36.06 500.23-36.16 500.15-36.24 500.06-36.33 500.06-36.61 500.06-36.89 500.43-37.08L500.43-37.08 506.65-40.01Q506.95-40.16 507.02-40.16L507.02-40.16Q507.44-40.16 507.44-39.58L507.44-39.58 507.44-15.21Q507.63-14.5 507.95-14.38 508.27-14.26 508.63-14.26L508.63-14.26Q509.34-14.26 510.96-15.37 512.59-16.48 513.9-17.86 515.22-19.24 515.22-19.76 515.22-20.29 514.76-20.42 514.3-20.56 513.72-20.62 513.15-20.68 512.68-20.81 512.22-20.95 512.22-21.46 512.22-21.97 513.22-21.97L513.22-21.97 522.52-21.97Q523.38-21.97 523.38-21.41L523.38-21.41Q523.38-21.12 522.82-20.95 522.25-20.78 520.64-20.42 519.03-20.07 518.08-19.31L518.08-19.31 511.07-13.84Q511.07-13.53 511.54-13.06L511.54-13.06 521.57-2.49Q522.55-1.49 523.57-1.18 524.6-0.88 524.94-0.78 525.28-0.68 525.28-0.44L525.28-0.44Q525.28 0 524.89 0L524.89 0 514.17 0Q513.93 0 513.93-0.29L513.93-0.29Q513.93-0.73 514.54-0.85L514.54-0.85Q516.37-1.2 516.37-2.1L516.37-2.1Q516.37-2.37 516-2.81 515.64-3.25 515.32-3.66L515.32-3.66 507.78-11.65Q507.78-11.67 507.75-11.69L507.75-11.69ZM545.32-12.87L531.16-12.87Q530.75-12.87 530.75-11.08L530.75-11.08Q530.75-7.3 532.99-4.74 535.24-2.17 538.57-2.17 541.91-2.17 544.98-5.05L544.98-5.05Q545.03-5.1 545.1-5.1L545.1-5.1 545.23-5.1Q545.37-5.1 545.51-4.87 545.64-4.64 545.76-4.57L545.76-4.57Q542.93-1.12 539.1 0.2L539.1 0.2Q537.78 0.66 536.12 0.66 534.46 0.66 532.75-0.26 531.04-1.17 529.82-2.66L529.82-2.66Q527.23-5.76 527.23-10.39 527.23-15.01 530.05-18.82 532.87-22.63 537.8-22.63L537.8-22.63Q541.34-22.63 543.59-19.47 545.84-16.31 545.84-13.92L545.84-13.92Q545.84-12.87 545.32-12.87L545.32-12.87ZM531.43-15.5L531.43-15.21Q531.43-14.75 531.87-14.75L531.87-14.75 541.08-14.75Q541.71-14.75 541.71-15.5L541.71-15.5Q541.71-17.26 540.14-19.1 538.56-20.95 536.68-20.95L536.68-20.95Q534.85-20.95 533.35-19.29 531.85-17.63 531.43-15.5L531.43-15.5ZM564.78-17.5L564.78-17.5Q564.49-17.55 563.92-17.82L563.92-17.82Q561.9-18.75 560.75-18.75 559.6-18.75 558.35-17.32 557.09-15.89 557.09-14.75L557.09-14.75 557.09-3.71Q557.09-1.88 559.21-1.27L559.21-1.27Q560.14-1.03 560.95-0.92 561.75-0.81 561.98-0.71 562.22-0.61 562.22-0.33 562.22-0.05 561.97 0L561.97 0 549.74 0Q549.5-0.05 549.5-0.34L549.5-0.34Q549.5-0.78 550.64-0.93L550.64-0.93Q553.28-1.32 553.28-3.71L553.28-3.71 553.28-16.63Q553.28-17.65 552.16-18.04L552.16-18.04Q551.67-18.21 551.11-18.32 550.55-18.43 550.22-18.53 549.89-18.63 549.8-18.71 549.72-18.8 549.72-19.08 549.72-19.36 550.08-19.56L550.08-19.56 556.31-22.49Q556.6-22.63 556.67-22.63L556.67-22.63Q557.09-22.63 557.09-22.05L557.09-22.05 557.09-18.09Q557.09-17.8 557.23-17.8L557.23-17.8Q557.43-17.8 558.24-18.95L558.24-18.95Q560.56-22.19 562.07-22.19L562.07-22.19Q562.92-22.19 564.69-21.51 566.46-20.83 566.46-20.36L566.46-20.36Q566.46-19.8 565.9-18.65 565.34-17.5 564.78-17.5Z" opacity="1" transform="matrix(1,0,0,1,0,0)" fill="#8789fe" class="slogan-text-1" data-fill-palette-color="secondary" id="text-1"></path></svg></g></svg></g></svg></g></svg></g><g transform="matrix(1,0,0,1,0,5.588509689713334)"><svg viewBox="0 0 138.86474211937056 130.90373544379398" height="130.90373544379398" width="138.86474211937056"><g><svg xmlns="http://www.w3.org/2000/svg" xmlns:xlink="http://www.w3.org/1999/xlink" version="1.1" x="0" y="0" viewBox="7.00578894734441 6.6401923788646675 89.99774140591951 84.83824152722858" enable-background="new 0 0 100 100" xml:space="preserve" height="130.90373544379398" width="138.86474211937056" class="icon-icon-0" data-fill-palette-color="accent" id="icon-0"><g fill="#8789fe" data-fill-palette-color="accent"><g fill="#8789fe" data-fill-palette-color="accent"><path fill="#8789fe" d="M60.3 73.2c-2.9-0.7-5.9 1.1-6.7 4l-0.1 0.3c-1.2 5.3-4.4 9.9-8.9 12.9 0.7 0.3 1.5 0.5 2.2 0.7 7.8 1.8 15.6-3 17.6-10.6l0.1-0.4C65.3 76.9 63.4 73.9 60.3 73.2z" data-fill-palette-color="accent"></path><path fill="#8789fe" d="M53.5 60.5c1.4-0.2 2.9-0.2 4.7 0l1.2 0.2 0.2-2.1 0-0.1c0 0 0-0.3 0.2-1l0.4-1.3L58.9 56c-1.3-0.2-2.5-0.3-3.6-0.3-2.4 0-4.6 0.4-6.7 1.3-6.1 2.6-7.8 9.3-9.3 15.1-0.5 1.8-0.9 3.6-1.5 5.1-1.6 4.3-5 6.7-9.3 6.7-1.1 0-2.3-0.2-3.5-0.5-5.2-1.4-8.8-6.1-11.1-9.6-4.3-8.7-1.1-18.5 2.6-27.8 3.8-9.7 8.3-19.6 17.4-25 6.9-4.1 16.5-4.4 28.2-0.8 5.4 1.6 10.1 3.8 13.9 6.5l1 0.7 2.4-4.1-0.9-0.6c-4.9-3.4-11-6.1-18.5-8-10.1-2.6-19.6-2.1-27.3 1.6C23.6 20.7 18.4 30 14.5 38.6 8.9 51 3.8 64.1 9.5 75.7c0.1 0.2 0.1 0.3 0.2 0.4 0.1 0.1 0.2 0.3 0.3 0.4 3.7 5.6 10 12.3 18.4 12.3 0.6 0 1.2 0 1.8-0.1C40 87.6 42.4 79 44.5 71.5l0.4-1.4C46.5 64.2 49.2 61.3 53.5 60.5z" data-fill-palette-color="accent"></path><path fill="#8789fe" d="M93.1 35.3c-1.2-1.9-2.7-3.7-4.5-5.5l-1.3-1.3-1.9 4.8L86 34c3.3 3.5 5.3 7.5 6.1 11.9 0.8 4.7-0.8 9.6-4.4 13.2-2.1 2.1-4.8 3.1-8.4 3.1-1.2 0-2.6-0.1-4-0.4l-0.9-0.2L74 62.5c-0.3 0.7-0.7 1.5-1 2.1L72.2 66l1.6 0.3c1.8 0.4 3.6 0.5 5.2 0.5 6 0 10.8-2.4 14.4-7.1C99.1 52.2 97.3 41.8 93.1 35.3z" data-fill-palette-color="accent"></path><path fill="#8789fe" d="M72.7 61.3l14.5-36.9 1.2-3.1 5.2-13.1c0.1-0.1 0-0.3-0.1-0.4L92 6.7c-0.2-0.1-0.4-0.1-0.5 0.2l-6.2 10.4-1.5 2.6L62.5 55.5c-0.3 0.5-0.8 1.5-1.1 2.4-0.2 0.7-0.4 1.3-0.5 1.8l-0.2 1-1.5 7.6c0 0 0 0 0 0.1-0.1 1 0.5 2.3 1.3 2.6l3.2 1.8c0.8 0.4 1.9 0.2 2.6-0.6 0 0 0 0 0-0.1l3.8-5.9c0.2-0.2 0.5-0.8 0.9-1.5 0.5-0.9 1-2 1.3-2.8C72.5 61.8 72.6 61.5 72.7 61.3z" data-fill-palette-color="accent"></path></g><circle fill="#8789fe" cx="25.1" cy="67.9" r="5.9" data-fill-palette-color="accent"></circle><circle fill="#8789fe" cx="30.9" cy="48.3" r="5.9" data-fill-palette-color="accent"></circle><circle fill="#8789fe" cx="42.3" cy="31.4" r="5.9" data-fill-palette-color="accent"></circle><circle fill="#8789fe" cx="61.4" cy="31.4" r="5.9" data-fill-palette-color="accent"></circle></g></svg></g></svg></g></svg></g><defs></defs></svg><rect width="395.52" height="102.69902565327902" fill="none" stroke="none" visibility="hidden"></rect></g></svg></g></svg>